<svg data-v-423bf9ae="" xmlns="http://www.w3.org/2000/svg" viewBox="0 0 543.7534857864683 187" class="iconAboveSlogan"><!----><!----><!----><g data-v-423bf9ae="" id="bb43af66-4394-42e4-bd6e-4fb599ce9b22" fill="white" transform="matrix(5.602240876404433,0,0,5.602240876404433,-8.235298831969885,86.47338890905269)"><path d="M8.41 13.55L4.66 9.20L2.87 11.02L2.87 13.55L1.47 13.55L1.47 3.75L2.87 3.75L2.87 9.23L8.19 3.75L9.79 3.75L5.60 8.16L10.05 13.55L8.41 13.55ZM11.34 13.55L11.34 6.13L12.68 6.13L12.68 13.55L11.34 13.55ZM12.01 4.70L12.01 4.70Q11.62 4.70 11.36 4.45L11.36 4.45L11.36 4.45Q11.10 4.20 11.10 3.84L11.10 3.84L11.10 3.84Q11.10 3.47 11.36 3.21L11.36 3.21L11.36 3.21Q11.62 2.95 12.01 2.95L12.01 2.95L12.01 2.95Q12.40 2.95 12.66 3.20L12.66 3.20L12.66 3.20Q12.92 3.44 12.92 3.81L12.92 3.81L12.92 3.81Q12.92 4.19 12.66 4.45L12.66 4.45L12.66 4.45Q12.40 4.70 12.01 4.70L12.01 4.70ZM19.00 12.15L19.42 13.12L19.42 13.12Q19.12 13.37 18.69 13.50L18.69 13.50L18.69 13.50Q18.26 13.64 17.79 13.64L17.79 13.64L17.79 13.64Q16.67 13.64 16.06 13.03L16.06 13.03L16.06 13.03Q15.44 12.43 15.44 11.31L15.44 11.31L15.44 7.24L14.18 7.24L14.18 6.13L15.44 6.13L15.44 4.51L16.79 4.51L16.79 6.13L18.91 6.13L18.91 7.24L16.79 7.24L16.79 11.26L16.79 11.26Q16.79 11.86 17.09 12.18L17.09 12.18L17.09 12.18Q17.39 12.50 17.95 12.50L17.95 12.50L17.95 12.50Q18.56 12.50 19.00 12.15L19.00 12.15ZM23.17 13.64L23.17 13.64Q22.26 13.64 21.42 13.39L21.42 13.39L21.42 13.39Q20.58 13.15 20.10 12.77L20.10 12.77L20.66 11.70L20.66 11.70Q21.15 12.05 21.85 12.26L21.85 12.26L21.85 12.26Q22.55 12.47 23.27 12.47L23.27 12.47L23.27 12.47Q25.03 12.47 25.03 11.47L25.03 11.47L25.03 11.47Q25.03 11.13 24.79 10.93L24.79 10.93L24.79 10.93Q24.56 10.74 24.20 10.65L24.20 10.65L24.20 10.65Q23.84 10.56 23.18 10.44L23.18 10.44L23.18 10.44Q22.29 10.30 21.72 10.12L21.72 10.12L21.72 10.12Q21.15 9.94 20.75 9.51L20.75 9.51L20.75 9.51Q20.34 9.07 20.34 8.29L20.34 8.29L20.34 8.29Q20.34 7.28 21.18 6.67L21.18 6.67L21.18 6.67Q22.02 6.06 23.44 6.06L23.44 6.06L23.44 6.06Q24.18 6.06 24.92 6.24L24.92 6.24L24.92 6.24Q25.66 6.43 26.14 6.73L26.14 6.73L25.56 7.80L25.56 7.80Q24.65 7.21 23.42 7.21L23.42 7.21L23.42 7.21Q22.57 7.21 22.12 7.49L22.12 7.49L22.12 7.49Q21.67 7.77 21.67 8.23L21.67 8.23L21.67 8.23Q21.67 8.60 21.92 8.81L21.92 8.81L21.92 8.81Q22.18 9.02 22.55 9.11L22.55 9.11L22.55 9.11Q22.92 9.21 23.59 9.34L23.59 9.34L23.59 9.34Q24.49 9.49 25.04 9.67L25.04 9.67L25.04 9.67Q25.59 9.84 25.98 10.26L25.98 10.26L25.98 10.26Q26.38 10.68 26.38 11.44L26.38 11.44L26.38 11.44Q26.38 12.45 25.52 13.04L25.52 13.04L25.52 13.04Q24.65 13.64 23.17 13.64L23.17 13.64ZM33.63 6.13L34.97 6.13L34.97 13.55L33.70 13.55L33.70 12.43L33.70 12.43Q33.29 13.01 32.63 13.32L32.63 13.32L32.63 13.32Q31.96 13.64 31.18 13.64L31.18 13.64L31.18 13.64Q29.69 13.64 28.84 12.82L28.84 12.82L28.84 12.82Q27.99 12.00 27.99 10.40L27.99 10.40L27.99 6.13L29.33 6.13L29.33 10.25L29.33 10.25Q29.33 11.33 29.85 11.88L29.85 11.88L29.85 11.88Q30.37 12.43 31.33 12.43L31.33 12.43L31.33 12.43Q32.40 12.43 33.01 11.79L33.01 11.79L33.01 11.79Q33.63 11.14 33.63 9.97L33.63 9.97L33.63 6.13ZM41.50 6.06L41.50 6.06Q42.91 6.06 43.74 6.88L43.74 6.88L43.74 6.88Q44.58 7.70 44.58 9.28L44.58 9.28L44.58 13.55L43.23 13.55L43.23 9.44L43.23 9.44Q43.23 8.36 42.71 7.81L42.71 7.81L42.71 7.81Q42.20 7.27 41.23 7.27L41.23 7.27L41.23 7.27Q40.14 7.27 39.51 7.90L39.51 7.90L39.51 7.90Q38.88 8.54 38.88 9.73L38.88 9.73L38.88 13.55L37.53 13.55L37.53 6.13L38.82 6.13L38.82 7.25L38.82 7.25Q39.23 6.68 39.92 6.37L39.92 6.37L39.92 6.37Q40.61 6.06 41.50 6.06L41.50 6.06ZM53.77 9.88L53.77 9.88Q53.77 10.04 53.75 10.29L53.75 10.29L47.73 10.29L47.73 10.29Q47.85 11.27 48.59 11.87L48.59 11.87L48.59 11.87Q49.32 12.46 50.41 12.46L50.41 12.46L50.41 12.46Q51.74 12.46 52.56 11.56L52.56 11.56L53.30 12.43L53.30 12.43Q52.79 13.02 52.04 13.33L52.04 13.33L52.04 13.33Q51.30 13.64 50.37 13.64L50.37 13.64L50.37 13.64Q49.20 13.64 48.29 13.15L48.29 13.15L48.29 13.15Q47.38 12.67 46.88 11.80L46.88 11.80L46.88 11.80Q46.38 10.93 46.38 9.84L46.38 9.84L46.38 9.84Q46.38 8.76 46.86 7.90L46.86 7.90L46.86 7.90Q47.35 7.03 48.20 6.54L48.20 6.54L48.20 6.54Q49.04 6.06 50.11 6.06L50.11 6.06L50.11 6.06Q51.17 6.06 52.00 6.54L52.00 6.54L52.00 6.54Q52.84 7.03 53.30 7.90L53.30 7.90L53.30 7.90Q53.77 8.76 53.77 9.88L53.77 9.88ZM50.11 7.20L50.11 7.20Q49.14 7.20 48.49 7.78L48.49 7.78L48.49 7.78Q47.84 8.37 47.73 9.32L47.73 9.32L52.49 9.32L52.49 9.32Q52.37 8.39 51.72 7.79L51.72 7.79L51.72 7.79Q51.07 7.20 50.11 7.20L50.11 7.20ZM56.90 12.33L61.92 12.33L61.92 13.55L54.88 13.55L54.88 12.60L58.87 8.75L58.87 8.75Q59.60 8.05 59.85 7.54L59.85 7.54L59.85 7.54Q60.10 7.03 60.10 6.51L60.10 6.51L60.10 6.51Q60.10 5.74 59.56 5.31L59.56 5.31L59.56 5.31Q59.02 4.89 58.02 4.89L58.02 4.89L58.02 4.89Q56.39 4.89 55.51 5.95L55.51 5.95L54.56 5.12L54.56 5.12Q55.13 4.42 56.06 4.03L56.06 4.03L56.06 4.03Q56.99 3.64 58.14 3.64L58.14 3.64L58.14 3.64Q59.68 3.64 60.59 4.38L60.59 4.38L60.59 4.38Q61.50 5.11 61.50 6.37L61.50 6.37L61.50 6.37Q61.50 7.15 61.17 7.85L61.17 7.85L61.17 7.85Q60.83 8.55 59.89 9.45L59.89 9.45L56.90 12.33ZM66.82 7.87L66.82 7.87Q68.26 8.01 69.02 8.76L69.02 8.76L69.02 8.76Q69.78 9.51 69.78 10.67L69.78 10.67L69.78 10.67Q69.78 11.51 69.36 12.19L69.36 12.19L69.36 12.19Q68.94 12.87 68.10 13.26L68.10 13.26L68.10 13.26Q67.27 13.66 66.07 13.66L66.07 13.66L66.07 13.66Q65.02 13.66 64.05 13.35L64.05 13.35L64.05 13.35Q63.08 13.03 62.47 12.47L62.47 12.47L63.11 11.37L63.11 11.37Q63.62 11.84 64.40 12.13L64.40 12.13L64.40 12.13Q65.18 12.42 66.07 12.42L66.07 12.42L66.07 12.42Q67.16 12.42 67.77 11.96L67.77 11.96L67.77 11.96Q68.38 11.49 68.38 10.68L68.38 10.68L68.38 10.68Q68.38 9.87 67.77 9.42L67.77 9.42L67.77 9.42Q67.17 8.97 65.95 8.97L65.95 8.97L65.17 8.97L65.17 7.99L67.63 4.97L62.92 4.97L62.92 3.75L69.38 3.75L69.38 4.70L66.82 7.87ZM74.73 13.66L74.73 13.66Q73.63 13.66 72.60 13.32L72.60 13.32L72.60 13.32Q71.57 12.98 70.98 12.43L70.98 12.43L71.50 11.34L71.50 11.34Q72.06 11.84 72.93 12.16L72.93 12.16L72.93 12.16Q73.81 12.47 74.73 12.47L74.73 12.47L74.73 12.47Q75.95 12.47 76.55 12.06L76.55 12.06L76.55 12.06Q77.15 11.65 77.15 10.96L77.15 10.96L77.15 10.96Q77.15 10.46 76.82 10.14L76.82 10.14L76.82 10.14Q76.50 9.83 76.01 9.66L76.01 9.66L76.01 9.66Q75.53 9.49 74.65 9.28L74.65 9.28L74.65 9.28Q73.54 9.02 72.86 8.75L72.86 8.75L72.86 8.75Q72.18 8.48 71.70 7.93L71.70 7.93L71.70 7.93Q71.22 7.38 71.22 6.44L71.22 6.44L71.22 6.44Q71.22 5.66 71.63 5.03L71.63 5.03L71.63 5.03Q72.04 4.40 72.88 4.02L72.88 4.02L72.88 4.02Q73.72 3.64 74.97 3.64L74.97 3.64L74.97 3.64Q75.84 3.64 76.68 3.86L76.68 3.86L76.68 3.86Q77.52 4.09 78.12 4.51L78.12 4.51L77.66 5.63L77.66 5.63Q77.04 5.24 76.34 5.03L76.34 5.03L76.34 5.03Q75.64 4.83 74.97 4.83L74.97 4.83L74.97 4.83Q73.78 4.83 73.18 5.26L73.18 5.26L73.18 5.26Q72.59 5.70 72.59 6.38L72.59 6.38L72.59 6.38Q72.59 6.89 72.93 7.20L72.93 7.20L72.93 7.20Q73.26 7.52 73.76 7.69L73.76 7.69L73.76 7.69Q74.26 7.87 75.11 8.06L75.11 8.06L75.11 8.06Q76.22 8.33 76.89 8.60L76.89 8.60L76.89 8.60Q77.56 8.86 78.04 9.41L78.04 9.41L78.04 9.41Q78.53 9.95 78.53 10.88L78.53 10.88L78.53 10.88Q78.53 11.65 78.11 12.29L78.11 12.29L78.11 12.29Q77.69 12.92 76.83 13.29L76.83 13.29L76.83 13.29Q75.98 13.66 74.73 13.66L74.73 13.66ZM84.13 12.15L84.55 13.12L84.55 13.12Q84.25 13.37 83.82 13.50L83.82 13.50L83.82 13.50Q83.38 13.64 82.92 13.64L82.92 13.64L82.92 13.64Q81.80 13.64 81.19 13.03L81.19 13.03L81.19 13.03Q80.57 12.43 80.57 11.31L80.57 11.31L80.57 7.24L79.31 7.24L79.31 6.13L80.57 6.13L80.57 4.51L81.91 4.51L81.91 6.13L84.04 6.13L84.04 7.24L81.91 7.24L81.91 11.26L81.91 11.26Q81.91 11.86 82.21 12.18L82.21 12.18L82.21 12.18Q82.52 12.50 83.08 12.50L83.08 12.50L83.08 12.50Q83.69 12.50 84.13 12.15L84.13 12.15ZM88.87 6.06L88.87 6.06Q90.41 6.06 91.23 6.82L91.23 6.82L91.23 6.82Q92.05 7.57 92.05 9.07L92.05 9.07L92.05 13.55L90.78 13.55L90.78 12.57L90.78 12.57Q90.44 13.09 89.82 13.36L89.82 13.36L89.82 13.36Q89.19 13.64 88.34 13.64L88.34 13.64L88.34 13.64Q87.09 13.64 86.34 13.03L86.34 13.03L86.34 13.03Q85.60 12.43 85.60 11.45L85.60 11.45L85.60 11.45Q85.60 10.47 86.31 9.88L86.31 9.88L86.31 9.88Q87.02 9.28 88.58 9.28L88.58 9.28L90.71 9.28L90.71 9.02L90.71 9.02Q90.71 8.15 90.20 7.69L90.20 7.69L90.20 7.69Q89.70 7.22 88.72 7.22L88.72 7.22L88.72 7.22Q88.06 7.22 87.43 7.44L87.43 7.44L87.43 7.44Q86.80 7.66 86.37 8.02L86.37 8.02L85.81 7.01L85.81 7.01Q86.38 6.55 87.18 6.31L87.18 6.31L87.18 6.31Q87.98 6.06 88.87 6.06L88.87 6.06ZM88.56 12.60L88.56 12.60Q89.33 12.60 89.89 12.26L89.89 12.26L89.89 12.26Q90.45 11.91 90.71 11.28L90.71 11.28L90.71 10.25L88.63 10.25L88.63 10.25Q86.93 10.25 86.93 11.40L86.93 11.40L86.93 11.40Q86.93 11.96 87.36 12.28L87.36 12.28L87.36 12.28Q87.79 12.60 88.56 12.60L88.56 12.60ZM95.83 7.38L95.83 7.38Q96.18 6.73 96.87 6.40L96.87 6.40L96.87 6.40Q97.55 6.06 98.53 6.06L98.53 6.06L98.53 7.36L98.53 7.36Q98.42 7.35 98.22 7.35L98.22 7.35L98.22 7.35Q97.13 7.35 96.51 8.00L96.51 8.00L96.51 8.00Q95.89 8.65 95.89 9.86L95.89 9.86L95.89 13.55L94.54 13.55L94.54 6.13L95.83 6.13L95.83 7.38Z"></path></g><!----><g data-v-423bf9ae="" id="894e7245-6f46-4217-9fd9-5374faf854e6" transform="matrix(1.0970257267918195,0,0,1.0970257267918195,217.32358903709786,-10.974041228328723)" stroke="none" fill="white"><path d="M24.281 61.194a1.994 1.994 0 0 1-1.396-.567L8.993 47.085a5.964 5.964 0 0 1-1.518-6.151 5.959 5.959 0 0 1 4.844-4.083l19.197-2.789a2 2 0 0 1 .576 3.958l-19.198 2.79a1.987 1.987 0 0 0-1.614 1.361 1.99 1.99 0 0 0 .505 2.051l13.892 13.541a2 2 0 0 1-1.396 3.431zM27.239 92.079a5.984 5.984 0 0 1-3.521-1.152 5.963 5.963 0 0 1-2.387-5.868l3.279-19.121a2 2 0 1 1 3.942.676l-3.279 19.121a1.988 1.988 0 0 0 .796 1.956c.62.45 1.427.509 2.106.152l17.171-9.027a2 2 0 0 1 1.861 3.541l-17.171 9.027a6.007 6.007 0 0 1-2.797.695zM72.761 92.079c-.953 0-1.911-.23-2.796-.695l-17.173-9.027a2 2 0 0 1 1.861-3.541l17.172 9.027c.68.357 1.486.299 2.105-.152.62-.451.926-1.201.796-1.956l-3.28-19.121a2.001 2.001 0 0 1 3.944-.676l3.28 19.121a5.965 5.965 0 0 1-2.387 5.867 5.986 5.986 0 0 1-3.522 1.153zM75.719 61.194a2 2 0 0 1-1.396-3.432l13.893-13.541c.549-.535.742-1.321.505-2.05s-.855-1.251-1.613-1.361L67.91 38.02a2 2 0 1 1 .575-3.958l19.198 2.79a5.964 5.964 0 0 1 4.844 4.083 5.964 5.964 0 0 1-1.518 6.151L77.114 60.627a1.99 1.99 0 0 1-1.395.567zM62.175 33.665a2.001 2.001 0 0 1-1.796-1.115l-8.586-17.396c-.339-.688-1.026-1.115-1.793-1.115s-1.454.427-1.793 1.115L39.621 32.55a2.001 2.001 0 0 1-3.587-1.771l8.586-17.396c1.018-2.063 3.08-3.344 5.38-3.344s4.362 1.281 5.38 3.344l8.587 17.396a2 2 0 0 1-1.792 2.886z"></path></g><!----><g data-v-423bf9ae="" id="0a893f2f-afda-4e9b-88e1-10ee61863e38" fill="white" transform="matrix(0.9003137365406881,0,0,0.9003137365406881,68.17916987975929,199.80522010275666)"><path d="M8.76 10.68L8.76 10.68Q8.37 11.86 7.40 12.51L7.40 12.51L7.40 12.51Q6.43 13.16 5.07 13.16L5.07 13.16L5.07 13.16Q3.81 13.16 2.86 12.58L2.86 12.58L2.86 12.58Q1.90 12.00 1.39 10.92L1.39 10.92L1.39 10.92Q0.87 9.84 0.87 8.40L0.87 8.40L0.87 8.40Q0.87 6.96 1.39 5.88L1.39 5.88L1.39 5.88Q1.90 4.80 2.86 4.22L2.86 4.22L2.86 4.22Q3.81 3.64 5.05 3.64L5.05 3.64L5.05 3.64Q7.83 3.64 8.64 5.92L8.64 5.92L7.95 6.24L7.95 6.24Q7.63 5.26 6.92 4.77L6.92 4.77L6.92 4.77Q6.22 4.28 5.10 4.28L5.10 4.28L5.10 4.28Q4.06 4.28 3.27 4.78L3.27 4.78L3.27 4.78Q2.48 5.28 2.04 6.21L2.04 6.21L2.04 6.21Q1.61 7.14 1.61 8.40L1.61 8.40L1.61 8.40Q1.61 9.66 2.04 10.59L2.04 10.59L2.04 10.59Q2.46 11.52 3.24 12.02L3.24 12.02L3.24 12.02Q4.02 12.52 5.07 12.52L5.07 12.52L5.07 12.52Q6.19 12.52 6.97 11.97L6.97 11.97L6.97 11.97Q7.76 11.42 8.06 10.42L8.06 10.42L8.76 10.68ZM20.43 5.88L20.43 5.88Q21.98 5.88 22.87 6.85L22.87 6.85L22.87 6.85Q23.76 7.83 23.76 9.52L23.76 9.52L23.76 9.52Q23.76 11.21 22.87 12.19L22.87 12.19L22.87 12.19Q21.98 13.16 20.43 13.16L20.43 13.16L20.43 13.16Q18.87 13.16 17.98 12.19L17.98 12.19L17.98 12.19Q17.09 11.21 17.09 9.52L17.09 9.52L17.09 9.52Q17.09 7.83 17.98 6.85L17.98 6.85L17.98 6.85Q18.87 5.88 20.43 5.88L20.43 5.88ZM20.43 6.48L20.43 6.48Q19.19 6.48 18.49 7.29L18.49 7.29L18.49 7.29Q17.79 8.11 17.79 9.52L17.79 9.52L17.79 9.52Q17.79 10.93 18.49 11.75L18.49 11.75L18.49 11.75Q19.19 12.56 20.43 12.56L20.43 12.56L20.43 12.56Q21.66 12.56 22.36 11.75L22.36 11.75L22.36 11.75Q23.06 10.93 23.06 9.52L23.06 9.52L23.06 9.52Q23.06 8.11 22.36 7.29L22.36 7.29L22.36 7.29Q21.66 6.48 20.43 6.48L20.43 6.48ZM36.08 5.88L36.08 5.88Q37.28 5.88 38.02 6.55L38.02 6.55L38.02 6.55Q38.75 7.22 38.75 8.48L38.75 8.48L38.75 13.02L38.05 13.02L38.05 8.71L38.05 8.71Q38.05 7.59 37.51 7.04L37.51 7.04L37.51 7.04Q36.96 6.50 36.01 6.50L36.01 6.50L36.01 6.50Q35.34 6.50 34.76 6.80L34.76 6.80L34.76 6.80Q34.19 7.11 33.84 7.70L33.84 7.70L33.84 7.70Q33.50 8.29 33.50 9.07L33.50 9.07L33.50 13.02L32.80 13.02L32.80 6.02L33.43 6.02L33.46 7.43L33.46 7.43Q33.80 6.68 34.49 6.28L34.49 6.28L34.49 6.28Q35.18 5.88 36.08 5.88L36.08 5.88ZM51.03 5.88L51.03 5.88Q52.08 5.88 52.81 6.38L52.81 6.38L52.81 6.38Q53.55 6.87 53.87 7.77L53.87 7.77L53.21 8.08L53.21 8.08Q52.98 7.31 52.42 6.90L52.42 6.90L52.42 6.90Q51.86 6.50 51.02 6.50L51.02 6.50L51.02 6.50Q49.80 6.50 49.11 7.30L49.11 7.30L49.11 7.30Q48.43 8.11 48.43 9.52L48.43 9.52L48.43 9.52Q48.43 10.95 49.10 11.75L49.10 11.75L49.10 11.75Q49.78 12.54 51.00 12.54L51.00 12.54L51.00 12.54Q51.90 12.54 52.52 12.10L52.52 12.10L52.52 12.10Q53.14 11.66 53.28 10.88L53.28 10.88L53.93 11.10L53.93 11.10Q53.65 12.05 52.87 12.61L52.87 12.61L52.87 12.61Q52.09 13.16 51.02 13.16L51.02 13.16L51.02 13.16Q49.46 13.16 48.59 12.19L48.59 12.19L48.59 12.19Q47.73 11.23 47.73 9.52L47.73 9.52L47.73 9.52Q47.73 7.81 48.60 6.85L48.60 6.85L48.60 6.85Q49.48 5.88 51.03 5.88L51.03 5.88ZM68.63 9.35L68.63 9.35Q68.63 9.59 68.60 9.81L68.60 9.81L63.04 9.81L63.04 9.81Q63.11 11.10 63.80 11.82L63.80 11.82L63.80 11.82Q64.50 12.54 65.66 12.54L65.66 12.54L65.66 12.54Q66.49 12.54 67.08 12.21L67.08 12.21L67.08 12.21Q67.68 11.87 67.94 11.26L67.94 11.26L68.53 11.56L68.53 11.56Q68.14 12.33 67.41 12.75L67.41 12.75L67.41 12.75Q66.68 13.16 65.66 13.16L65.66 13.16L65.66 13.16Q64.11 13.16 63.23 12.19L63.23 12.19L63.23 12.19Q62.36 11.23 62.36 9.52L62.36 9.52L62.36 9.52Q62.36 7.81 63.20 6.85L63.20 6.85L63.20 6.85Q64.05 5.88 65.58 5.88L65.58 5.88L65.58 5.88Q67.00 5.88 67.82 6.83L67.82 6.83L67.82 6.83Q68.63 7.78 68.63 9.35L68.63 9.35ZM65.58 6.50L65.58 6.50Q64.44 6.50 63.78 7.20L63.78 7.20L63.78 7.20Q63.13 7.91 63.04 9.18L63.04 9.18L67.97 9.18L67.97 9.18Q67.90 7.92 67.28 7.21L67.28 7.21L67.28 7.21Q66.65 6.50 65.58 6.50L65.58 6.50ZM80.91 5.88L80.91 5.88Q82.39 5.88 83.25 6.85L83.25 6.85L83.25 6.85Q84.11 7.81 84.11 9.52L84.11 9.52L84.11 9.52Q84.11 11.23 83.25 12.19L83.25 12.19L83.25 12.19Q82.39 13.16 80.91 13.16L80.91 13.16L80.91 13.16Q80.01 13.16 79.33 12.73L79.33 12.73L79.33 12.73Q78.65 12.29 78.33 11.54L78.33 11.54L78.33 15.96L77.63 15.96L77.63 6.02L78.26 6.02L78.30 7.60L78.30 7.60Q78.60 6.79 79.28 6.33L79.28 6.33L79.28 6.33Q79.95 5.88 80.91 5.88L80.91 5.88ZM80.82 12.54L80.82 12.54Q82.04 12.54 82.73 11.74L82.73 11.74L82.73 11.74Q83.41 10.93 83.41 9.52L83.41 9.52L83.41 9.52Q83.41 8.11 82.73 7.30L82.73 7.30L82.73 7.30Q82.04 6.50 80.82 6.50L80.82 6.50L80.82 6.50Q79.73 6.50 79.06 7.24L79.06 7.24L79.06 7.24Q78.39 7.98 78.33 9.27L78.33 9.27L78.33 9.77L78.33 9.77Q78.39 11.06 79.06 11.80L79.06 11.80L79.06 11.80Q79.73 12.54 80.82 12.54L80.82 12.54ZM96.63 12.00L96.88 12.57L96.88 12.57Q96.60 12.85 96.19 13.01L96.19 13.01L96.19 13.01Q95.79 13.16 95.30 13.16L95.30 13.16L95.30 13.16Q94.44 13.16 93.96 12.69L93.96 12.69L93.96 12.69Q93.48 12.22 93.48 11.27L93.48 11.27L93.48 6.62L92.08 6.62L92.08 6.02L93.48 6.02L93.48 4.27L94.18 4.07L94.18 6.02L96.81 6.02L96.81 6.62L94.18 6.62L94.18 11.17L94.18 11.17Q94.18 11.83 94.49 12.17L94.49 12.17L94.49 12.17Q94.81 12.52 95.41 12.52L95.41 12.52L95.41 12.52Q96.11 12.52 96.63 12.00L96.63 12.00ZM122.67 13.02L121.51 10.12L117.08 10.12L115.93 13.02L115.19 13.02L118.89 3.78L119.71 3.78L123.41 13.02L122.67 13.02ZM117.35 9.48L121.25 9.48L119.64 5.45L119.31 4.47L119.29 4.47L118.96 5.42L117.35 9.48ZM134.86 5.88L134.86 5.88Q135.42 5.88 135.74 6.12L135.74 6.12L135.56 6.78L135.56 6.78Q135.24 6.52 134.67 6.52L134.67 6.52L134.67 6.52Q134.13 6.52 133.67 6.85L133.67 6.85L133.67 6.85Q133.20 7.18 132.91 7.78L132.91 7.78L132.91 7.78Q132.62 8.37 132.62 9.10L132.62 9.10L132.62 13.02L131.92 13.02L131.92 6.02L132.51 6.02L132.59 7.45L132.59 7.45Q132.89 6.71 133.47 6.29L133.47 6.29L133.47 6.29Q134.05 5.88 134.86 5.88L134.86 5.88ZM147.60 12.00L147.85 12.57L147.85 12.57Q147.57 12.85 147.17 13.01L147.17 13.01L147.17 13.01Q146.76 13.16 146.27 13.16L146.27 13.16L146.27 13.16Q145.42 13.16 144.94 12.69L144.94 12.69L144.94 12.69Q144.45 12.22 144.45 11.27L144.45 11.27L144.45 6.62L143.05 6.62L143.05 6.02L144.45 6.02L144.45 4.27L145.15 4.07L145.15 6.02L147.78 6.02L147.78 6.62L145.15 6.62L145.15 11.17L145.15 11.17Q145.15 11.83 145.47 12.17L145.47 12.17L145.47 12.17Q145.78 12.52 146.38 12.52L146.38 12.52L146.38 12.52Q147.08 12.52 147.60 12.00L147.60 12.00ZM156.58 11.87L156.58 11.87Q156.94 11.87 157.14 12.15L157.14 12.15L157.14 12.15Q157.35 12.43 157.35 12.89L157.35 12.89L157.35 12.89Q157.35 13.48 157.04 14L157.04 14L157.04 14Q156.73 14.52 156.14 14.81L156.14 14.81L155.75 14.46L155.75 14.46Q156.24 14.28 156.56 13.85L156.56 13.85L156.56 13.85Q156.87 13.41 156.84 13.01L156.84 13.01L156.80 12.99L156.80 12.99Q156.70 13.13 156.48 13.13L156.48 13.13L156.48 13.13Q156.27 13.13 156.10 12.96L156.10 12.96L156.10 12.96Q155.93 12.80 155.93 12.52L155.93 12.52L155.93 12.52Q155.93 12.25 156.12 12.06L156.12 12.06L156.12 12.06Q156.31 11.87 156.58 11.87L156.58 11.87ZM178.64 3.78L178.64 13.02L177.94 13.02L177.94 3.78L178.64 3.78ZM188.99 2.80L188.99 11.33L188.99 11.33Q188.99 11.97 189.19 12.24L189.19 12.24L189.19 12.24Q189.39 12.50 189.87 12.50L189.87 12.50L189.87 12.50Q190.15 12.50 190.34 12.46L190.34 12.46L190.34 12.46Q190.54 12.42 190.79 12.31L190.79 12.31L190.69 12.98L190.69 12.98Q190.30 13.16 189.77 13.16L189.77 13.16L189.77 13.16Q189.01 13.16 188.65 12.73L188.65 12.73L188.65 12.73Q188.29 12.31 188.29 11.40L188.29 11.40L188.29 2.80L188.99 2.80ZM199.82 2.80L199.82 11.33L199.82 11.33Q199.82 11.97 200.03 12.24L200.03 12.24L200.03 12.24Q200.23 12.50 200.70 12.50L200.70 12.50L200.70 12.50Q200.98 12.50 201.18 12.46L201.18 12.46L201.18 12.46Q201.38 12.42 201.63 12.31L201.63 12.31L201.53 12.98L201.53 12.98Q201.14 13.16 200.61 13.16L200.61 13.16L200.61 13.16Q199.85 13.16 199.49 12.73L199.49 12.73L199.49 12.73Q199.12 12.31 199.12 11.40L199.12 11.40L199.12 2.80L199.82 2.80ZM215.10 6.02L215.80 6.02L215.80 13.02L215.17 13.02L215.14 11.63L215.14 11.63Q214.79 12.38 214.09 12.77L214.09 12.77L214.09 12.77Q213.39 13.16 212.44 13.16L212.44 13.16L212.44 13.16Q211.29 13.16 210.60 12.52L210.60 12.52L210.60 12.52Q209.92 11.89 209.92 10.64L209.92 10.64L209.92 6.02L210.62 6.02L210.62 10.47L210.62 10.47Q210.62 12.54 212.55 12.54L212.55 12.54L212.55 12.54Q213.32 12.54 213.90 12.21L213.90 12.21L213.90 12.21Q214.48 11.87 214.79 11.30L214.79 11.30L214.79 11.30Q215.10 10.72 215.10 10.04L215.10 10.04L215.10 6.02ZM227.57 13.16L227.57 13.16Q226.51 13.16 225.72 12.74L225.72 12.74L225.72 12.74Q224.94 12.32 224.64 11.52L224.64 11.52L225.22 11.14L225.22 11.14Q225.43 11.84 226.07 12.19L226.07 12.19L226.07 12.19Q226.72 12.54 227.65 12.54L227.65 12.54L227.65 12.54Q228.61 12.54 229.15 12.18L229.15 12.18L229.15 12.18Q229.68 11.82 229.68 11.21L229.68 11.21L229.68 11.21Q229.68 10.70 229.22 10.39L229.22 10.39L229.22 10.39Q228.76 10.08 227.60 9.87L227.60 9.87L227.60 9.87Q226.13 9.60 225.53 9.16L225.53 9.16L225.53 9.16Q224.92 8.71 224.92 7.88L224.92 7.88L224.92 7.88Q224.92 7.34 225.26 6.87L225.26 6.87L225.26 6.87Q225.60 6.41 226.21 6.15L226.21 6.15L226.21 6.15Q226.83 5.88 227.61 5.88L227.61 5.88L227.61 5.88Q228.72 5.88 229.38 6.30L229.38 6.30L229.38 6.30Q230.05 6.72 230.30 7.59L230.30 7.59L229.70 7.94L229.70 7.94Q229.31 6.50 227.61 6.50L227.61 6.50L227.61 6.50Q227.05 6.50 226.60 6.68L226.60 6.68L226.60 6.68Q226.14 6.86 225.88 7.16L225.88 7.16L225.88 7.16Q225.62 7.46 225.62 7.81L225.62 7.81L225.62 7.81Q225.62 8.39 226.10 8.71L226.10 8.71L226.10 8.71Q226.58 9.03 227.78 9.24L227.78 9.24L227.78 9.24Q229.21 9.48 229.80 9.93L229.80 9.93L229.80 9.93Q230.38 10.37 230.38 11.19L230.38 11.19L230.38 11.19Q230.38 12.08 229.62 12.62L229.62 12.62L229.62 12.62Q228.86 13.16 227.57 13.16L227.57 13.16ZM242.97 12.00L243.22 12.57L243.22 12.57Q242.94 12.85 242.54 13.01L242.54 13.01L242.54 13.01Q242.13 13.16 241.64 13.16L241.64 13.16L241.64 13.16Q240.79 13.16 240.30 12.69L240.30 12.69L240.30 12.69Q239.82 12.22 239.82 11.27L239.82 11.27L239.82 6.62L238.42 6.62L238.42 6.02L239.82 6.02L239.82 4.27L240.52 4.07L240.52 6.02L243.15 6.02L243.15 6.62L240.52 6.62L240.52 11.17L240.52 11.17Q240.52 11.83 240.84 12.17L240.84 12.17L240.84 12.17Q241.15 12.52 241.75 12.52L241.75 12.52L241.75 12.52Q242.45 12.52 242.97 12.00L242.97 12.00ZM254.58 5.88L254.58 5.88Q255.14 5.88 255.46 6.12L255.46 6.12L255.28 6.78L255.28 6.78Q254.95 6.52 254.38 6.52L254.38 6.52L254.38 6.52Q253.85 6.52 253.38 6.85L253.38 6.85L253.38 6.85Q252.91 7.18 252.62 7.78L252.62 7.78L252.62 7.78Q252.34 8.37 252.34 9.10L252.34 9.10L252.34 13.02L251.64 13.02L251.64 6.02L252.22 6.02L252.31 7.45L252.31 7.45Q252.60 6.71 253.18 6.29L253.18 6.29L253.18 6.29Q253.76 5.88 254.58 5.88L254.58 5.88ZM269.37 12.56L269.37 12.56Q269.72 12.56 269.92 12.46L269.92 12.46L269.88 13.02L269.88 13.02Q269.63 13.16 269.19 13.16L269.19 13.16L269.19 13.16Q268.70 13.16 268.39 12.89L268.39 12.89L268.39 12.89Q268.09 12.63 268.04 11.97L268.04 11.97L268.04 11.97Q267.72 12.53 267.01 12.84L267.01 12.84L267.01 12.84Q266.29 13.16 265.51 13.16L265.51 13.16L265.51 13.16Q264.47 13.16 263.85 12.70L263.85 12.70L263.85 12.70Q263.23 12.24 263.23 11.38L263.23 11.38L263.23 11.38Q263.23 9.76 265.89 9.28L265.89 9.28L268.03 8.90L268.03 8.29L268.03 8.29Q268.03 7.45 267.53 6.97L267.53 6.97L267.53 6.97Q267.04 6.50 266.13 6.50L266.13 6.50L266.13 6.50Q264.46 6.50 263.89 7.98L263.89 7.98L263.35 7.59L263.35 7.59Q263.66 6.76 264.38 6.32L264.38 6.32L264.38 6.32Q265.09 5.88 266.13 5.88L266.13 5.88L266.13 5.88Q267.34 5.88 268.04 6.47L268.04 6.47L268.04 6.47Q268.73 7.07 268.73 8.20L268.73 8.20L268.73 11.82L268.73 11.82Q268.73 12.56 269.37 12.56L269.37 12.56ZM265.58 12.54L265.58 12.54Q266.17 12.54 266.73 12.34L266.73 12.34L266.73 12.34Q267.29 12.14 267.66 11.74L267.66 11.74L267.66 11.74Q268.03 11.34 268.03 10.78L268.03 10.78L268.03 9.48L266.11 9.83L266.11 9.83Q264.98 10.04 264.46 10.42L264.46 10.42L264.46 10.42Q263.94 10.79 263.94 11.38L263.94 11.38L263.94 11.38Q263.94 11.94 264.38 12.24L264.38 12.24L264.38 12.24Q264.81 12.54 265.58 12.54L265.58 12.54ZM281.74 12.00L281.99 12.57L281.99 12.57Q281.71 12.85 281.30 13.01L281.30 13.01L281.30 13.01Q280.90 13.16 280.41 13.16L280.41 13.16L280.41 13.16Q279.55 13.16 279.07 12.69L279.07 12.69L279.07 12.69Q278.59 12.22 278.59 11.27L278.59 11.27L278.59 6.62L277.19 6.62L277.19 6.02L278.59 6.02L278.59 4.27L279.29 4.07L279.29 6.02L281.92 6.02L281.92 6.62L279.29 6.62L279.29 11.17L279.29 11.17Q279.29 11.83 279.60 12.17L279.60 12.17L279.60 12.17Q279.92 12.52 280.52 12.52L280.52 12.52L280.52 12.52Q281.22 12.52 281.74 12.00L281.74 12.00ZM290.75 4.66L290.75 4.66Q290.49 4.66 290.33 4.50L290.33 4.50L290.33 4.50Q290.16 4.34 290.16 4.07L290.16 4.07L290.16 4.07Q290.16 3.81 290.33 3.65L290.33 3.65L290.33 3.65Q290.49 3.49 290.75 3.49L290.75 3.49L290.75 3.49Q291.02 3.49 291.18 3.65L291.18 3.65L291.18 3.65Q291.34 3.81 291.34 4.07L291.34 4.07L291.34 4.07Q291.34 4.34 291.18 4.50L291.18 4.50L291.18 4.50Q291.02 4.66 290.75 4.66L290.75 4.66ZM291.10 6.02L291.10 13.02L290.40 13.02L290.40 6.02L291.10 6.02ZM303.49 5.88L303.49 5.88Q305.05 5.88 305.94 6.85L305.94 6.85L305.94 6.85Q306.82 7.83 306.82 9.52L306.82 9.52L306.82 9.52Q306.82 11.21 305.94 12.19L305.94 12.19L305.94 12.19Q305.05 13.16 303.49 13.16L303.49 13.16L303.49 13.16Q301.94 13.16 301.05 12.19L301.05 12.19L301.05 12.19Q300.16 11.21 300.16 9.52L300.16 9.52L300.16 9.52Q300.16 7.83 301.05 6.85L301.05 6.85L301.05 6.85Q301.94 5.88 303.49 5.88L303.49 5.88ZM303.49 6.48L303.49 6.48Q302.26 6.48 301.56 7.29L301.56 7.29L301.56 7.29Q300.86 8.11 300.86 9.52L300.86 9.52L300.86 9.52Q300.86 10.93 301.56 11.75L301.56 11.75L301.56 11.75Q302.26 12.56 303.49 12.56L303.49 12.56L303.49 12.56Q304.72 12.56 305.42 11.75L305.42 11.75L305.42 11.75Q306.12 10.93 306.12 9.52L306.12 9.52L306.12 9.52Q306.12 8.11 305.42 7.29L305.42 7.29L305.42 7.29Q304.72 6.48 303.49 6.48L303.49 6.48ZM319.14 5.88L319.14 5.88Q320.35 5.88 321.08 6.55L321.08 6.55L321.08 6.55Q321.82 7.22 321.82 8.48L321.82 8.48L321.82 13.02L321.12 13.02L321.12 8.71L321.12 8.71Q321.12 7.59 320.57 7.04L320.57 7.04L320.57 7.04Q320.03 6.50 319.07 6.50L319.07 6.50L319.07 6.50Q318.40 6.50 317.83 6.80L317.83 6.80L317.83 6.80Q317.25 7.11 316.91 7.70L316.91 7.70L316.91 7.70Q316.57 8.29 316.57 9.07L316.57 9.07L316.57 13.02L315.87 13.02L315.87 6.02L316.50 6.02L316.53 7.43L316.53 7.43Q316.86 6.68 317.56 6.28L317.56 6.28L317.56 6.28Q318.25 5.88 319.14 5.88L319.14 5.88ZM333.52 13.16L333.52 13.16Q332.46 13.16 331.67 12.74L331.67 12.74L331.67 12.74Q330.89 12.32 330.60 11.52L330.60 11.52L331.17 11.14L331.17 11.14Q331.38 11.84 332.02 12.19L332.02 12.19L332.02 12.19Q332.67 12.54 333.61 12.54L333.61 12.54L333.61 12.54Q334.56 12.54 335.10 12.18L335.10 12.18L335.10 12.18Q335.64 11.82 335.64 11.21L335.64 11.21L335.64 11.21Q335.64 10.70 335.17 10.39L335.17 10.39L335.17 10.39Q334.71 10.08 333.55 9.87L333.55 9.87L333.55 9.87Q332.08 9.60 331.48 9.16L331.48 9.16L331.48 9.16Q330.88 8.71 330.88 7.88L330.88 7.88L330.88 7.88Q330.88 7.34 331.21 6.87L331.21 6.87L331.21 6.87Q331.55 6.41 332.16 6.15L332.16 6.15L332.16 6.15Q332.78 5.88 333.56 5.88L333.56 5.88L333.56 5.88Q334.67 5.88 335.34 6.30L335.34 6.30L335.34 6.30Q336.00 6.72 336.25 7.59L336.25 7.59L335.65 7.94L335.65 7.94Q335.26 6.50 333.56 6.50L333.56 6.50L333.56 6.50Q333.00 6.50 332.55 6.68L332.55 6.68L332.55 6.68Q332.09 6.86 331.84 7.16L331.84 7.16L331.84 7.16Q331.58 7.46 331.58 7.81L331.58 7.81L331.58 7.81Q331.58 8.39 332.05 8.71L332.05 8.71L332.05 8.71Q332.53 9.03 333.73 9.24L333.73 9.24L333.73 9.24Q335.16 9.48 335.75 9.93L335.75 9.93L335.75 9.93Q336.34 10.37 336.34 11.19L336.34 11.19L336.34 11.19Q336.34 12.08 335.57 12.62L335.57 12.62L335.57 12.62Q334.81 13.16 333.52 13.16L333.52 13.16ZM345.62 11.87L345.62 11.87Q345.98 11.87 346.19 12.15L346.19 12.15L346.19 12.15Q346.39 12.43 346.39 12.89L346.39 12.89L346.39 12.89Q346.39 13.48 346.08 14L346.08 14L346.08 14Q345.77 14.52 345.18 14.81L345.18 14.81L344.79 14.46L344.79 14.46Q345.28 14.28 345.60 13.85L345.60 13.85L345.60 13.85Q345.91 13.41 345.88 13.01L345.88 13.01L345.84 12.99L345.84 12.99Q345.74 13.13 345.52 13.13L345.52 13.13L345.52 13.13Q345.31 13.13 345.14 12.96L345.14 12.96L345.14 12.96Q344.97 12.80 344.97 12.52L344.97 12.52L344.97 12.52Q344.97 12.25 345.16 12.06L345.16 12.06L345.16 12.06Q345.35 11.87 345.62 11.87L345.62 11.87ZM373.28 4.42L367.68 4.42L367.68 7.99L372.12 7.99L372.12 8.65L367.68 8.65L367.68 13.02L366.98 13.02L366.98 3.78L373.28 3.78L373.28 4.42ZM386.86 12.56L386.86 12.56Q387.21 12.56 387.41 12.46L387.41 12.46L387.37 13.02L387.37 13.02Q387.11 13.16 386.68 13.16L386.68 13.16L386.68 13.16Q386.19 13.16 385.88 12.89L385.88 12.89L385.88 12.89Q385.57 12.63 385.53 11.97L385.53 11.97L385.53 11.97Q385.21 12.53 384.50 12.84L384.50 12.84L384.50 12.84Q383.78 13.16 383.00 13.16L383.00 13.16L383.00 13.16Q381.96 13.16 381.34 12.70L381.34 12.70L381.34 12.70Q380.72 12.24 380.72 11.38L380.72 11.38L380.72 11.38Q380.72 9.76 383.38 9.28L383.38 9.28L385.52 8.90L385.52 8.29L385.52 8.29Q385.52 7.45 385.02 6.97L385.02 6.97L385.02 6.97Q384.52 6.50 383.61 6.50L383.61 6.50L383.61 6.50Q381.95 6.50 381.37 7.98L381.37 7.98L380.84 7.59L380.84 7.59Q381.15 6.76 381.86 6.32L381.86 6.32L381.86 6.32Q382.58 5.88 383.61 5.88L383.61 5.88L383.61 5.88Q384.83 5.88 385.53 6.47L385.53 6.47L385.53 6.47Q386.22 7.07 386.22 8.20L386.22 8.20L386.22 11.82L386.22 11.82Q386.22 12.56 386.86 12.56L386.86 12.56ZM383.07 12.54L383.07 12.54Q383.66 12.54 384.22 12.34L384.22 12.34L384.22 12.34Q384.78 12.14 385.15 11.74L385.15 11.74L385.15 11.74Q385.52 11.34 385.52 10.78L385.52 10.78L385.52 9.48L383.60 9.83L383.60 9.83Q382.47 10.04 381.95 10.42L381.95 10.42L381.95 10.42Q381.43 10.79 381.43 11.38L381.43 11.38L381.43 11.38Q381.43 11.94 381.86 12.24L381.86 12.24L381.86 12.24Q382.30 12.54 383.07 12.54L383.07 12.54ZM399.11 5.88L399.11 5.88Q400.32 5.88 401.05 6.55L401.05 6.55L401.05 6.55Q401.79 7.22 401.79 8.48L401.79 8.48L401.79 13.02L401.09 13.02L401.09 8.71L401.09 8.71Q401.09 7.59 400.54 7.04L400.54 7.04L400.54 7.04Q399.99 6.50 399.04 6.50L399.04 6.50L399.04 6.50Q398.37 6.50 397.80 6.80L397.80 6.80L397.80 6.80Q397.22 7.11 396.88 7.70L396.88 7.70L396.88 7.70Q396.54 8.29 396.54 9.07L396.54 9.07L396.54 13.02L395.84 13.02L395.84 6.02L396.47 6.02L396.49 7.43L396.49 7.43Q396.83 6.68 397.52 6.28L397.52 6.28L397.52 6.28Q398.22 5.88 399.11 5.88L399.11 5.88ZM428.65 13.02L427.49 10.12L423.07 10.12L421.92 13.02L421.18 13.02L424.87 3.78L425.70 3.78L429.39 13.02L428.65 13.02ZM423.33 9.48L427.24 9.48L425.63 5.45L425.29 4.47L425.28 4.47L424.94 5.42L423.33 9.48ZM440.85 5.88L440.85 5.88Q441.41 5.88 441.73 6.12L441.73 6.12L441.55 6.78L441.55 6.78Q441.22 6.52 440.65 6.52L440.65 6.52L440.65 6.52Q440.12 6.52 439.65 6.85L439.65 6.85L439.65 6.85Q439.18 7.18 438.89 7.78L438.89 7.78L438.89 7.78Q438.61 8.37 438.61 9.10L438.61 9.10L438.61 13.02L437.91 13.02L437.91 6.02L438.49 6.02L438.58 7.45L438.58 7.45Q438.87 6.71 439.45 6.29L439.45 6.29L439.45 6.29Q440.03 5.88 440.85 5.88L440.85 5.88ZM453.59 12.00L453.84 12.57L453.84 12.57Q453.56 12.85 453.15 13.01L453.15 13.01L453.15 13.01Q452.75 13.16 452.26 13.16L452.26 13.16L452.26 13.16Q451.40 13.16 450.92 12.69L450.92 12.69L450.92 12.69Q450.44 12.22 450.44 11.27L450.44 11.27L450.44 6.62L449.04 6.62L449.04 6.02L450.44 6.02L450.44 4.27L451.14 4.07L451.14 6.02L453.77 6.02L453.77 6.62L451.14 6.62L451.14 11.17L451.14 11.17Q451.14 11.83 451.45 12.17L451.45 12.17L451.45 12.17Q451.77 12.52 452.37 12.52L452.37 12.52L452.37 12.52Q453.07 12.52 453.59 12.00L453.59 12.00Z"></path></g></svg>