<svg data-v-fde0c5aa="" xmlns="http://www.w3.org/2000/svg" viewBox="0 0 300 300" class="font"><!----><defs data-v-fde0c5aa=""><!----></defs><rect data-v-fde0c5aa="" fill="#F1E2EC" x="0" y="0" width="300px" height="300px" class="logo-background-square"></rect><defs data-v-fde0c5aa=""><linearGradient data-v-fde0c5aa="" gradientTransform="rotate(25)" id="1d28b307-4c80-44fd-8203-185385f198f1" x1="0%" y1="0%" x2="100%" y2="0%"><stop data-v-fde0c5aa="" offset="0%" stop-color="#8C48D2" stop-opacity="1"></stop><stop data-v-fde0c5aa="" offset="100%" stop-color="#CF705A" stop-opacity="1"></stop></linearGradient></defs><g data-v-fde0c5aa="" id="c4669f5c-4d13-4488-801a-45550b63a076" fill="url(#1d28b307-4c80-44fd-8203-185385f198f1)" transform="matrix(2.2666392492663014,0,0,2.2666392492663014,36.66804023872947,131.17556088352887)"><path d="M8.41 13.55L4.66 9.20L2.87 11.02L2.87 13.55L1.47 13.55L1.47 3.75L2.87 3.75L2.87 9.23L8.19 3.75L9.79 3.75L5.60 8.16L10.05 13.55L8.41 13.55ZM11.34 13.55L11.34 6.13L12.68 6.13L12.68 13.55L11.34 13.55ZM12.01 4.70L12.01 4.70Q11.62 4.70 11.36 4.45L11.36 4.45L11.36 4.45Q11.10 4.20 11.10 3.84L11.10 3.84L11.10 3.84Q11.10 3.47 11.36 3.21L11.36 3.21L11.36 3.21Q11.62 2.95 12.01 2.95L12.01 2.95L12.01 2.95Q12.40 2.95 12.66 3.20L12.66 3.20L12.66 3.20Q12.92 3.44 12.92 3.81L12.92 3.81L12.92 3.81Q12.92 4.19 12.66 4.45L12.66 4.45L12.66 4.45Q12.40 4.70 12.01 4.70L12.01 4.70ZM19.00 12.15L19.42 13.12L19.42 13.12Q19.12 13.37 18.69 13.50L18.69 13.50L18.69 13.50Q18.26 13.64 17.79 13.64L17.79 13.64L17.79 13.64Q16.67 13.64 16.06 13.03L16.06 13.03L16.06 13.03Q15.44 12.43 15.44 11.31L15.44 11.31L15.44 7.24L14.18 7.24L14.18 6.13L15.44 6.13L15.44 4.51L16.79 4.51L16.79 6.13L18.91 6.13L18.91 7.24L16.79 7.24L16.79 11.26L16.79 11.26Q16.79 11.86 17.09 12.18L17.09 12.18L17.09 12.18Q17.39 12.50 17.95 12.50L17.95 12.50L17.95 12.50Q18.56 12.50 19.00 12.15L19.00 12.15ZM23.17 13.64L23.17 13.64Q22.26 13.64 21.42 13.39L21.42 13.39L21.42 13.39Q20.58 13.15 20.10 12.77L20.10 12.77L20.66 11.70L20.66 11.70Q21.15 12.05 21.85 12.26L21.85 12.26L21.85 12.26Q22.55 12.47 23.27 12.47L23.27 12.47L23.27 12.47Q25.03 12.47 25.03 11.47L25.03 11.47L25.03 11.47Q25.03 11.13 24.79 10.93L24.79 10.93L24.79 10.93Q24.56 10.74 24.20 10.65L24.20 10.65L24.20 10.65Q23.84 10.56 23.18 10.44L23.18 10.44L23.18 10.44Q22.29 10.30 21.72 10.12L21.72 10.12L21.72 10.12Q21.15 9.94 20.75 9.51L20.75 9.51L20.75 9.51Q20.34 9.07 20.34 8.29L20.34 8.29L20.34 8.29Q20.34 7.28 21.18 6.67L21.18 6.67L21.18 6.67Q22.02 6.06 23.44 6.06L23.44 6.06L23.44 6.06Q24.18 6.06 24.92 6.24L24.92 6.24L24.92 6.24Q25.66 6.43 26.14 6.73L26.14 6.73L25.56 7.80L25.56 7.80Q24.65 7.21 23.42 7.21L23.42 7.21L23.42 7.21Q22.57 7.21 22.12 7.49L22.12 7.49L22.12 7.49Q21.67 7.77 21.67 8.23L21.67 8.23L21.67 8.23Q21.67 8.60 21.92 8.81L21.92 8.81L21.92 8.81Q22.18 9.02 22.55 9.11L22.55 9.11L22.55 9.11Q22.92 9.21 23.59 9.34L23.59 9.34L23.59 9.34Q24.49 9.49 25.04 9.67L25.04 9.67L25.04 9.67Q25.59 9.84 25.98 10.26L25.98 10.26L25.98 10.26Q26.38 10.68 26.38 11.44L26.38 11.44L26.38 11.44Q26.38 12.45 25.52 13.04L25.52 13.04L25.52 13.04Q24.65 13.64 23.17 13.64L23.17 13.64ZM33.63 6.13L34.97 6.13L34.97 13.55L33.70 13.55L33.70 12.43L33.70 12.43Q33.29 13.01 32.63 13.32L32.63 13.32L32.63 13.32Q31.96 13.64 31.18 13.64L31.18 13.64L31.18 13.64Q29.69 13.64 28.84 12.82L28.84 12.82L28.84 12.82Q27.99 12.00 27.99 10.40L27.99 10.40L27.99 6.13L29.33 6.13L29.33 10.25L29.33 10.25Q29.33 11.33 29.85 11.88L29.85 11.88L29.85 11.88Q30.37 12.43 31.33 12.43L31.33 12.43L31.33 12.43Q32.40 12.43 33.01 11.79L33.01 11.79L33.01 11.79Q33.63 11.14 33.63 9.97L33.63 9.97L33.63 6.13ZM41.50 6.06L41.50 6.06Q42.91 6.06 43.74 6.88L43.74 6.88L43.74 6.88Q44.58 7.70 44.58 9.28L44.58 9.28L44.58 13.55L43.23 13.55L43.23 9.44L43.23 9.44Q43.23 8.36 42.71 7.81L42.71 7.81L42.71 7.81Q42.20 7.27 41.23 7.27L41.23 7.27L41.23 7.27Q40.14 7.27 39.51 7.90L39.51 7.90L39.51 7.90Q38.88 8.54 38.88 9.73L38.88 9.73L38.88 13.55L37.53 13.55L37.53 6.13L38.82 6.13L38.82 7.25L38.82 7.25Q39.23 6.68 39.92 6.37L39.92 6.37L39.92 6.37Q40.61 6.06 41.50 6.06L41.50 6.06ZM53.77 9.88L53.77 9.88Q53.77 10.04 53.75 10.29L53.75 10.29L47.73 10.29L47.73 10.29Q47.85 11.27 48.59 11.87L48.59 11.87L48.59 11.87Q49.32 12.46 50.41 12.46L50.41 12.46L50.41 12.46Q51.74 12.46 52.56 11.56L52.56 11.56L53.30 12.43L53.30 12.43Q52.79 13.02 52.04 13.33L52.04 13.33L52.04 13.33Q51.30 13.64 50.37 13.64L50.37 13.64L50.37 13.64Q49.20 13.64 48.29 13.15L48.29 13.15L48.29 13.15Q47.38 12.67 46.88 11.80L46.88 11.80L46.88 11.80Q46.38 10.93 46.38 9.84L46.38 9.84L46.38 9.84Q46.38 8.76 46.86 7.90L46.86 7.90L46.86 7.90Q47.35 7.03 48.20 6.54L48.20 6.54L48.20 6.54Q49.04 6.06 50.11 6.06L50.11 6.06L50.11 6.06Q51.17 6.06 52.00 6.54L52.00 6.54L52.00 6.54Q52.84 7.03 53.30 7.90L53.30 7.90L53.30 7.90Q53.77 8.76 53.77 9.88L53.77 9.88ZM50.11 7.20L50.11 7.20Q49.14 7.20 48.49 7.78L48.49 7.78L48.49 7.78Q47.84 8.37 47.73 9.32L47.73 9.32L52.49 9.32L52.49 9.32Q52.37 8.39 51.72 7.79L51.72 7.79L51.72 7.79Q51.07 7.20 50.11 7.20L50.11 7.20ZM56.90 12.33L61.92 12.33L61.92 13.55L54.88 13.55L54.88 12.60L58.87 8.75L58.87 8.75Q59.60 8.05 59.85 7.54L59.85 7.54L59.85 7.54Q60.10 7.03 60.10 6.51L60.10 6.51L60.10 6.51Q60.10 5.74 59.56 5.31L59.56 5.31L59.56 5.31Q59.02 4.89 58.02 4.89L58.02 4.89L58.02 4.89Q56.39 4.89 55.51 5.95L55.51 5.95L54.56 5.12L54.56 5.12Q55.13 4.42 56.06 4.03L56.06 4.03L56.06 4.03Q56.99 3.64 58.14 3.64L58.14 3.64L58.14 3.64Q59.68 3.64 60.59 4.38L60.59 4.38L60.59 4.38Q61.50 5.11 61.50 6.37L61.50 6.37L61.50 6.37Q61.50 7.15 61.17 7.85L61.17 7.85L61.17 7.85Q60.83 8.55 59.89 9.45L59.89 9.45L56.90 12.33ZM66.82 7.87L66.82 7.87Q68.26 8.01 69.02 8.76L69.02 8.76L69.02 8.76Q69.78 9.51 69.78 10.67L69.78 10.67L69.78 10.67Q69.78 11.51 69.36 12.19L69.36 12.19L69.36 12.19Q68.94 12.87 68.10 13.26L68.10 13.26L68.10 13.26Q67.27 13.66 66.07 13.66L66.07 13.66L66.07 13.66Q65.02 13.66 64.05 13.35L64.05 13.35L64.05 13.35Q63.08 13.03 62.47 12.47L62.47 12.47L63.11 11.37L63.11 11.37Q63.62 11.84 64.40 12.13L64.40 12.13L64.40 12.13Q65.18 12.42 66.07 12.42L66.07 12.42L66.07 12.42Q67.16 12.42 67.77 11.96L67.77 11.96L67.77 11.96Q68.38 11.49 68.38 10.68L68.38 10.68L68.38 10.68Q68.38 9.87 67.77 9.42L67.77 9.42L67.77 9.42Q67.17 8.97 65.95 8.97L65.95 8.97L65.17 8.97L65.17 7.99L67.63 4.97L62.92 4.97L62.92 3.75L69.38 3.75L69.38 4.70L66.82 7.87ZM74.73 13.66L74.73 13.66Q73.63 13.66 72.60 13.32L72.60 13.32L72.60 13.32Q71.57 12.98 70.98 12.43L70.98 12.43L71.50 11.34L71.50 11.34Q72.06 11.84 72.93 12.16L72.93 12.16L72.93 12.16Q73.81 12.47 74.73 12.47L74.73 12.47L74.73 12.47Q75.95 12.47 76.55 12.06L76.55 12.06L76.55 12.06Q77.15 11.65 77.15 10.96L77.15 10.96L77.15 10.96Q77.15 10.46 76.82 10.14L76.82 10.14L76.82 10.14Q76.50 9.83 76.01 9.66L76.01 9.66L76.01 9.66Q75.53 9.49 74.65 9.28L74.65 9.28L74.65 9.28Q73.54 9.02 72.86 8.75L72.86 8.75L72.86 8.75Q72.18 8.48 71.70 7.93L71.70 7.93L71.70 7.93Q71.22 7.38 71.22 6.44L71.22 6.44L71.22 6.44Q71.22 5.66 71.63 5.03L71.63 5.03L71.63 5.03Q72.04 4.40 72.88 4.02L72.88 4.02L72.88 4.02Q73.72 3.64 74.97 3.64L74.97 3.64L74.97 3.64Q75.84 3.64 76.68 3.86L76.68 3.86L76.68 3.86Q77.52 4.09 78.12 4.51L78.12 4.51L77.66 5.63L77.66 5.63Q77.04 5.24 76.34 5.03L76.34 5.03L76.34 5.03Q75.64 4.83 74.97 4.83L74.97 4.83L74.97 4.83Q73.78 4.83 73.18 5.26L73.18 5.26L73.18 5.26Q72.59 5.70 72.59 6.38L72.59 6.38L72.59 6.38Q72.59 6.89 72.93 7.20L72.93 7.20L72.93 7.20Q73.26 7.52 73.76 7.69L73.76 7.69L73.76 7.69Q74.26 7.87 75.11 8.06L75.11 8.06L75.11 8.06Q76.22 8.33 76.89 8.60L76.89 8.60L76.89 8.60Q77.56 8.86 78.04 9.41L78.04 9.41L78.04 9.41Q78.53 9.95 78.53 10.88L78.53 10.88L78.53 10.88Q78.53 11.65 78.11 12.29L78.11 12.29L78.11 12.29Q77.69 12.92 76.83 13.29L76.83 13.29L76.83 13.29Q75.98 13.66 74.73 13.66L74.73 13.66ZM84.13 12.15L84.55 13.12L84.55 13.12Q84.25 13.37 83.82 13.50L83.82 13.50L83.82 13.50Q83.38 13.64 82.92 13.64L82.92 13.64L82.92 13.64Q81.80 13.64 81.19 13.03L81.19 13.03L81.19 13.03Q80.57 12.43 80.57 11.31L80.57 11.31L80.57 7.24L79.31 7.24L79.31 6.13L80.57 6.13L80.57 4.51L81.91 4.51L81.91 6.13L84.04 6.13L84.04 7.24L81.91 7.24L81.91 11.26L81.91 11.26Q81.91 11.86 82.21 12.18L82.21 12.18L82.21 12.18Q82.52 12.50 83.08 12.50L83.08 12.50L83.08 12.50Q83.69 12.50 84.13 12.15L84.13 12.15ZM88.87 6.06L88.87 6.06Q90.41 6.06 91.23 6.82L91.23 6.82L91.23 6.82Q92.05 7.57 92.05 9.07L92.05 9.07L92.05 13.55L90.78 13.55L90.78 12.57L90.78 12.57Q90.44 13.09 89.82 13.36L89.82 13.36L89.82 13.36Q89.19 13.64 88.34 13.64L88.34 13.64L88.34 13.64Q87.09 13.64 86.34 13.03L86.34 13.03L86.34 13.03Q85.60 12.43 85.60 11.45L85.60 11.45L85.60 11.45Q85.60 10.47 86.31 9.88L86.31 9.88L86.31 9.88Q87.02 9.28 88.58 9.28L88.58 9.28L90.71 9.28L90.71 9.02L90.71 9.02Q90.71 8.15 90.20 7.69L90.20 7.69L90.20 7.69Q89.70 7.22 88.72 7.22L88.72 7.22L88.72 7.22Q88.06 7.22 87.43 7.44L87.43 7.44L87.43 7.44Q86.80 7.66 86.37 8.02L86.37 8.02L85.81 7.01L85.81 7.01Q86.38 6.55 87.18 6.31L87.18 6.31L87.18 6.31Q87.98 6.06 88.87 6.06L88.87 6.06ZM88.56 12.60L88.56 12.60Q89.33 12.60 89.89 12.26L89.89 12.26L89.89 12.26Q90.45 11.91 90.71 11.28L90.71 11.28L90.71 10.25L88.63 10.25L88.63 10.25Q86.93 10.25 86.93 11.40L86.93 11.40L86.93 11.40Q86.93 11.96 87.36 12.28L87.36 12.28L87.36 12.28Q87.79 12.60 88.56 12.60L88.56 12.60ZM95.83 7.38L95.83 7.38Q96.18 6.73 96.87 6.40L96.87 6.40L96.87 6.40Q97.55 6.06 98.53 6.06L98.53 6.06L98.53 7.36L98.53 7.36Q98.42 7.35 98.22 7.35L98.22 7.35L98.22 7.35Q97.13 7.35 96.51 8.00L96.51 8.00L96.51 8.00Q95.89 8.65 95.89 9.86L95.89 9.86L95.89 13.55L94.54 13.55L94.54 6.13L95.83 6.13L95.83 7.38Z"></path></g><!----><!----></svg>